<?xml version="1.0" encoding="UTF-8"?>
<svg width="26px" height="26px" viewBox="0 0 26 26" version="1.1" xmlns="http://www.w3.org/2000/svg" xmlns:xlink="http://www.w3.org/1999/xlink">
    <title>Home</title>
    <defs>
        <linearGradient x1="50%" y1="0%" x2="50%" y2="100%" id="linearGradient-1">
            <stop stop-color="#919BAA" offset="0%"></stop>
            <stop stop-color="#BAC2CD" offset="100%"></stop>
        </linearGradient>
    </defs>
    <g id="UI-Design" stroke="none" stroke-width="1" fill="none" fill-rule="evenodd">
        <path d="M15.3382,0.943931013 L24.9705,8.82424101 L25.0201,8.87880101 C25.1701,9.04370101 25.3998,9.30640101 25.5943,9.61980101 C25.7798,9.91890101 26,10.368601 26,10.895601 L26,23.997601 C26,25.101301 25.1068,26 24,26 L17.7601,26 C16.9317,26 16.2601,25.328401 16.2601,24.5 L16.2601,19.793901 C16.2601,17.994801 14.8058,16.540501 13.0168,16.540501 C11.2279,16.540501 9.7735,17.994801 9.7735,19.793901 L9.7735,24.5 C9.7735,25.328401 9.102,26 8.27354,26 L2,26 C0.89318,26 0,25.101301 0,23.997601 L0,10.742501 C0,10.090101 0.36299,9.56400101 0.56986,9.30280101 C0.69049,9.15050101 0.80873,9.02640101 0.89631,8.94036101 C0.9407,8.89677101 0.97877,8.86147101 1.0074,8.83565101 C1.02175,8.82270101 1.03384,8.81204101 1.0433,8.80382101 L1.05551,8.79329101 L1.071,8.796 L1.06356,8.78646101 L1.07352,8.77807101 L10.6288,0.946171013 C11.9452,-0.314520987 14.0206,-0.315511987 15.3382,0.943931013 Z" id="Home" fill="url(#linearGradient-1)"></path>
    </g>
</svg>