<?xml version="1.0" encoding="UTF-8"?>
<svg width="26px" height="27px" viewBox="0 0 26 27" version="1.1" xmlns="http://www.w3.org/2000/svg" xmlns:xlink="http://www.w3.org/1999/xlink">
    <title>Greenshop</title>
    <defs>
        <linearGradient x1="50%" y1="0%" x2="50%" y2="100%" id="linearGradient-1">
            <stop stop-color="#848F9F" offset="0%"></stop>
            <stop stop-color="#BAC2CD" offset="100%"></stop>
        </linearGradient>
    </defs>
    <g id="UI-Design" stroke="none" stroke-width="1" fill="none" fill-rule="evenodd">
        <path d="M17.1010487,5.85945769 C17.1054203,5.78697234 17.1094633,5.75097771 17.1094633,5.71492796 C17.1123374,3.68770835 15.2875483,1.17486444 12.5241351,1.16468792 C9.85562465,1.15496542 7.69300396,3.24122063 7.69626884,5.90829573 C7.69781827,7.16457988 7.6962135,8.42091915 7.69604749,9.67725842 C7.69604749,9.77372182 7.69604749,9.87024033 7.69604749,9.98103544 C7.2788074,9.98103544 6.90185256,9.97034178 6.52572777,9.98417739 C6.17505795,9.9970208 5.9206743,10.2668427 5.93190769,10.5830773 C5.94291973,10.8931382 6.19658399,11.1392577 6.53175949,11.1416279 C7.31405699,11.1471401 8.09652051,11.1471401 8.87881801,11.1408562 C9.17830122,11.1384308 9.40612316,10.9323299 9.45548366,10.6482314 C9.49986384,10.3931271 9.33739475,10.1326759 9.06524797,10.0248574 C9.00006112,9.99906031 8.93343551,9.97679105 8.88756124,9.96019934 L8.88756124,5.85945769 L17.1010487,5.85945769 Z M6.64935036,4.64820816 C7.23426121,1.82050773 9.84782215,-0.164433351 12.7414984,0.0107441759 C15.5166984,0.178700729 17.7658106,2.18635205 18.2333519,4.91439202 C18.2580875,5.05875638 18.2877481,5.20499489 18.2881354,5.35040657 C18.2921197,6.88092237 18.2905703,8.41143818 18.2905703,9.98015348 C17.9131727,9.98015348 17.5392614,9.97083788 17.1660142,9.98246861 C16.6879588,9.99740665 16.4045233,10.4195305 16.6011906,10.8153611 C16.7134691,11.041306 16.9044367,11.1458723 17.1606465,11.1447698 C17.9247381,11.1415177 18.6889405,11.1464235 19.4530322,11.1422342 C19.7766976,11.1404703 20.0066223,10.9479294 20.0605204,10.6528065 C20.1089402,10.3877251 19.9406608,10.1270535 19.6496994,10.0173057 C19.5981808,9.99790275 19.5458321,9.98064958 19.4831908,9.95865593 L19.4831908,5.90239768 C21.3731113,5.58219433 24.5249485,6.74477118 24.6243335,8.11951238 C24.7809922,10.2855842 24.9821972,12.448514 25.1674097,14.6124911 C25.3626936,16.8952009 25.5631791,19.1774698 25.7575775,21.4602898 C25.8431284,22.4647218 25.936703,23.4689885 25.9952495,24.4751844 C26.0785315,25.9060397 25.0581194,26.9921624 23.617313,26.9940917 C17.8724592,27.0019741 8.12760543,27.0015883 2.38275167,26.9951941 C0.947091597,26.9935956 -0.0901429225,25.8993148 0.00619858935,24.4749088 C0.109457212,22.9481412 0.257040676,21.4244606 0.383319441,19.8992365 C0.501297674,18.4744445 0.614129577,17.0492116 0.734155275,15.6245851 C0.853350919,14.2091639 0.979629684,12.7944042 1.10109414,11.3792035 C1.19743565,10.2560388 1.28741342,9.13232291 1.38707515,8.00948898 C1.49415201,6.80259409 4.48363081,5.89049134 5.71044948,5.8619933 C5.96699127,5.85604013 6.22380974,5.86111135 6.47979816,5.86111135 C6.53712717,5.4416885 6.56833717,5.03984955 6.64935036,4.64820816 Z" id="Greenshop" fill="url(#linearGradient-1)"></path>
    </g>
</svg>