<?xml version="1.0" encoding="UTF-8"?>
<svg width="26px" height="26px" viewBox="0 0 26 26" version="1.1" xmlns="http://www.w3.org/2000/svg" xmlns:xlink="http://www.w3.org/1999/xlink">
    <title>Greenshop</title>
    <g id="UI-Design" stroke="none" stroke-width="1" fill="none" fill-rule="evenodd">
        <path d="M22,0 C24.209139,-4.05812251e-16 26,1.790861 26,4 L26,22 C26,24.209139 24.209139,26 22,26 L4,26 C1.790861,26 2.705415e-16,24.209139 0,22 L0,4 C-2.705415e-16,1.790861 1.790861,4.05812251e-16 4,0 L22,0 Z M13.4975421,13.5904675 L8.25225512,13.5905305 C8.16206597,13.5905305 8.07092747,13.5880043 7.98189112,13.5994746 C7.46503273,13.6659068 7.09118856,14.0320005 7.01096769,14.5449551 C6.94091853,14.9929113 7.21216407,15.4948735 7.6601939,15.6664501 C7.86403493,15.7445574 8.09879795,15.7690683 8.31959182,15.7696828 C9.37077681,15.7723592 10.4219726,15.7735827 11.4802708,15.7740874 L14.6835635,15.7741792 C15.2233606,15.7740798 15.7667061,15.7739842 16.3144865,15.7739842 C15.8108513,16.2782677 15.3668901,16.7084723 14.9395428,17.1548582 C14.5292839,17.5834241 14.5294195,18.2500671 14.92042,18.6638855 C15.3221346,19.0891059 16.010488,19.1226292 16.4410225,18.6969991 C17.5357017,17.6147626 18.6282788,16.529522 19.6927141,15.4173807 C20.2963033,14.7867873 19.9623322,13.8085345 19.1122486,13.6209814 C18.9926972,13.5946271 18.8661611,13.5918278 18.74288,13.5917595 L13.4975421,13.5904675 Z M10.5631315,6.29603378 C9.46845233,7.37806547 8.38638604,8.47313781 7.30920217,9.57285288 C7.05219701,9.83530429 6.94247819,10.166714 7.03443043,10.5430491 C7.17093475,11.1018167 7.57820994,11.4091251 8.20838115,11.4100127 C10.2047484,11.412812 12.2011156,11.4106955 14.1975506,11.4106955 C15.7427687,11.4106272 17.2879867,11.4121975 18.8332726,11.4102175 C19.2996793,11.4096031 19.6634874,11.2187728 19.8781104,10.7894558 C20.0751025,10.3955056 20.0207856,10.015825 19.7675779,9.66837045 C19.5191848,9.32767521 19.1630394,9.22492043 18.7571882,9.22546664 L14.9504943,9.22793309 L10.7833829,9.22778801 C10.7703631,9.19795157 10.7574112,9.16818341 10.7444592,9.13841525 C11.1882847,8.7026121 11.6444519,8.2786889 12.0722739,7.82752374 C12.4806341,7.39677299 12.4606298,6.72739902 12.059661,6.31993024 C11.6590314,5.91280284 10.9811887,5.88276158 10.5631315,6.29603378 Z" id="Greenshop" fill="#2ADF80"></path>
    </g>
</svg>