<?xml version="1.0" encoding="UTF-8"?>
<svg width="26px" height="26px" viewBox="0 0 26 26" version="1.1" xmlns="http://www.w3.org/2000/svg" xmlns:xlink="http://www.w3.org/1999/xlink">
    <title>Auto Tri</title>
    <defs>
        <linearGradient x1="50%" y1="0%" x2="50%" y2="100%" id="linearGradient-1">
            <stop stop-color="#848F9F" offset="0%"></stop>
            <stop stop-color="#BAC2CD" offset="100%"></stop>
        </linearGradient>
        <linearGradient x1="50%" y1="0%" x2="50%" y2="100%" id="linearGradient-2">
            <stop stop-color="#848F9F" stop-opacity="0.647071678" offset="0%"></stop>
            <stop stop-color="#BAC2CD" stop-opacity="0" offset="100%"></stop>
        </linearGradient>
    </defs>
    <g id="UI-Design" stroke="none" stroke-width="1" fill="none" fill-rule="evenodd">
        <g id="Auto-Tri">
            <path d="M5.2,0 C2.34169,0 0,2.34169 0,5.2 L0,7.8 C0,8.51797017 0.582029825,9.1 1.3,9.1 C2.01797017,9.1 2.6,8.51797017 2.6,7.8 L2.6,5.2 C2.6,3.73711 3.73711,2.6 5.2,2.6 L7.8,2.6 C8.51797017,2.6 9.1,2.01797017 9.1,1.3 C9.1,0.582029825 8.51797017,0 7.8,0 L5.2,0 Z M1.3,16.9 C0.582029825,16.9 0,17.4820298 0,18.2 L0,20.8 C0,23.65831 2.34169,26 5.2,26 L7.8,26 C8.51797017,26 9.1,25.4179702 9.1,24.7 C9.1,23.9820298 8.51797017,23.4 7.8,23.4 L5.2,23.4 C3.73711,23.4 2.6,22.26289 2.6,20.8 L2.6,18.2 C2.6,17.4820298 2.01797017,16.9 1.3,16.9 Z M24.7,16.9 C23.9820298,16.9 23.4,17.4820298 23.4,18.2 L23.4,20.8 C23.4,22.26289 22.26289,23.4 20.8,23.4 L18.2,23.4 C17.4820298,23.4 16.9,23.9820298 16.9,24.7 C16.9,25.4179702 17.4820298,26 18.2,26 L20.8,26 C23.65831,26 26,23.65831 26,20.8 L26,18.2 C26,17.4820298 25.4179702,16.9 24.7,16.9 Z M18.2,0 C17.4820298,0 16.9,0.582029825 16.9,1.3 C16.9,2.01797017 17.4820298,2.6 18.2,2.6 L20.8,2.6 C22.26289,2.6 23.4,3.73711 23.4,5.2 L23.4,7.8 C23.4,8.51797017 23.9820298,9.1 24.7,9.1 C25.4179702,9.1 26,8.51797017 26,7.8 L26,5.2 C26,2.34169 23.65831,0 20.8,0 L18.2,0 Z" id="Combined-Shape" fill="url(#linearGradient-1)" fill-rule="nonzero"></path>
            <rect id="Rectangle" fill="url(#linearGradient-2)" x="4" y="8" width="18" height="10" rx="1"></rect>
        </g>
    </g>
</svg>