<?xml version="1.0" encoding="UTF-8"?>
<svg width="18px" height="20px" viewBox="0 0 18 20" version="1.1" xmlns="http://www.w3.org/2000/svg" xmlns:xlink="http://www.w3.org/1999/xlink">
    <title>Combined Shape Copy 9</title>
    <g id="UI-Design" stroke="none" stroke-width="1" fill="none" fill-rule="evenodd">
        <path d="M7.01040489,3.46268829 C6.84452594,3.4649749 6.73293977,3.41047729 6.63330925,3.28352263 C6.11569943,2.62397769 5.89791885,1.88116193 6.03224422,1.04397575 C6.1021028,0.608471249 6.36700275,0.309306049 6.77991848,0.22722617 C7.31876719,0.120088823 7.86966532,0.0479176004 8.41803167,0.0240510773 C9.31976987,-0.0151548081 10.2261497,-0.0303036192 11.1160729,0.171918718 C11.5826719,0.277960396 12.0059023,0.476705175 12.1244274,1.00505569 C12.3292209,1.91803357 12.0487551,2.70472371 11.4484871,3.38584856 C11.3990235,3.44196585 11.2808266,3.45420876 11.1943238,3.45487569 C10.5009424,3.46021112 9.80746709,3.45787687 9.11403872,3.45821033 C8.41282744,3.4585438 7.71147551,3.45297018 7.01040489,3.46268829 Z M11.2017645,4.36178928 C11.5002809,4.36217038 11.5864555,4.45177703 11.5900656,4.75823081 C11.5982705,5.4498836 11.5572462,5.49151901 10.8657401,5.49156665 C9.61039559,5.49161429 8.35500423,5.49056626 7.09965976,5.49252916 C6.89524139,5.49285287 6.70662325,5.47698949 6.62101133,5.2444219 C6.52433457,4.98169959 6.58378468,4.54428958 6.75280492,4.41938334 C6.81389601,4.37422274 6.91066654,4.3638377 6.99130865,4.36336133 C7.70081856,4.35926448 8.41037536,4.36097944 9.11993215,4.36121763 C9.81387626,4.36145582 10.5078204,4.36078889 11.2017645,4.36178928 Z M8.79535704,15.8675686 C8.79535704,16.8137976 8.78977773,17.7396853 8.7992016,18.6653825 C8.80163962,18.9050481 9.00052557,19.0821177 9.20433444,19.074448 C9.4115659,19.0666354 9.56586427,18.8805146 9.58564972,18.6414207 C9.61879737,18.2409776 9.57955467,17.8448219 9.65808696,17.43528 C9.75429487,16.9333208 9.6810137,16.3977769 9.6810137,15.8675686 L8.79535704,15.8675686 Z M4.51733999,12.1478209 C4.57697765,13.9616766 6.13262021,15.505855 7.91935868,15.528864 C8.7375479,15.539392 9.5561122,15.5383916 10.3743483,15.5290069 C12.1142487,15.5089991 13.5969852,14.1246454 13.7487986,12.3730046 C13.7666618,12.1668283 13.6931462,11.954221 13.6872387,11.7438526 C13.6763614,11.3560811 13.6789401,10.9676427 13.6869105,10.5796807 C13.6900987,10.4243816 13.6571386,10.3513053 13.4825859,10.3555927 C13.0230196,10.3668828 12.5628908,10.3540682 12.1031839,10.3607852 C11.0475224,10.3761722 10.1665542,10.7796165 9.48522216,11.6064176 C9.34292634,11.7791045 9.22318219,11.9710847 9.08552798,12.1647323 C9.00896486,12.0551178 8.94454494,11.9564599 8.87384244,11.8627564 C8.31961547,11.1280867 7.62787496,10.57425 6.71272767,10.4443895 C6.00092039,10.3433974 5.2726565,10.3622143 4.51429247,10.325962 C4.51429247,10.9779801 4.49811717,11.563496 4.51733999,12.1478209 Z M4.03208079,19.7107934 C3.18266619,19.5967485 2.34000303,19.4451175 1.53311308,19.1387114 C1.05165155,18.9558776 0.613933681,18.7039691 0.310353645,18.2638437 C-0.0414710016,17.7538337 -0.106172229,17.2112872 0.178091208,16.6520197 C0.46258907,16.0922759 0.904479701,15.7516182 1.54445924,15.7254175 C2.31182517,15.6939765 2.7898641,15.1845858 2.79727192,14.4005158 C2.80524236,13.5531827 2.76192067,12.6995139 2.84800143,11.8599458 C3.06611021,9.73306227 4.14057256,8.13186151 5.92191925,7.01980539 C6.29760834,6.78523701 6.71347782,6.61626584 7.11476609,6.42557184 C7.1807801,6.39417855 7.26714217,6.40032382 7.34412726,6.40022855 C8.47494531,6.39860886 9.60585713,6.3914632 10.7364876,6.40570689 C10.9383742,6.40823169 11.150388,6.47473402 11.3387717,6.55662335 C13.6186929,7.54806063 15.0071437,9.26854636 15.3246486,11.7844876 C15.4369381,12.6742659 15.3675483,13.5876725 15.3823171,14.4902177 C15.3928662,15.1371863 15.7630698,15.6093718 16.3457559,15.7114596 C16.5137915,15.7408997 16.6890944,15.7322773 16.854692,15.7699588 C17.6529082,15.9516492 18.0508677,16.5649855 17.9947933,17.3879757 C17.941532,18.1691875 17.5012354,18.621651 16.8706329,18.9491607 C16.2329976,19.2802908 15.54332,19.4469277 14.8445467,19.5666891 C12.9942323,19.8837661 11.3418661,19.9992401 8.97722375,19.9999552 C7.32326345,20.0020507 5.67319461,19.9310704 4.03208079,19.7107934 Z" id="Combined-Shape-Copy-9" fill="#2adf80"></path>
    </g>
</svg>