<?xml version="1.0" encoding="UTF-8"?>
<svg width="52px" height="53px" viewBox="0 0 52 53" version="1.1" xmlns="http://www.w3.org/2000/svg" xmlns:xlink="http://www.w3.org/1999/xlink">
    <title>Combined Shape 2</title>
    <defs>
        <path d="M60.572223,331.43549 C60.577939,331.468309 60.5835973,331.501127 60.5892556,331.533945 C60.5036306,331.584098 60.4195068,331.636965 60.3322075,331.68394 C55.9283239,334.052471 52.7135478,337.493899 50.8808384,342.18 C50.4456696,343.292706 50.2146034,344.454467 49.9943341,345.627668 C49.6443861,347.4915 49.5066817,349.355275 49.7091678,351.239157 C50.1528241,355.365727 51.7000206,359.032782 54.3807232,362.198546 C57.2833117,365.626454 60.9301389,367.866947 65.3053845,368.907603 C67.2175987,369.362439 69.1587971,369.472681 71.114199,369.389075 C71.4953832,369.372781 71.8754703,369.293451 72.2524396,369.223654 C72.7676906,369.128203 72.9372084,369.208054 73.1517039,369.688659 C73.1788406,369.7495 73.2046493,369.810861 73.2474907,369.909952 C74.1502193,369.661618 75.0336635,369.418658 75.9316576,369.171653 L75.9316576,380 L53.5577881,380 L53.5577881,376.556492 L59.9156301,376.556492 L59.9156301,374.356386 L59.5823683,374.356386 C57.3907615,374.356502 55.1986351,374.387414 53.007779,374.347315 C51.1453925,374.313283 49.2860661,374.18669 47.4915791,373.609652 C45.4657949,372.958252 44.3155449,371.57514 44.0523766,369.464996 C43.987133,368.941808 43.9478714,368.412091 43.9441762,367.88509 C43.931243,366.047951 43.9426173,364.210639 43.934303,362.373443 C43.9333215,362.15735 43.900411,361.929412 43.8253521,361.728168 C43.6627628,361.291995 43.3445704,361.053022 42.8572067,361.057355 C42.0210496,361.064808 41.1847194,361.059262 40.3484469,361.059204 L40,361.059204 C40.3380541,360.192925 40.6576899,359.374197 40.9770947,358.555412 C41.9390044,356.089235 42.9021843,353.623635 43.8590131,351.155493 C43.9127669,351.016881 43.9354578,350.857816 43.9358042,350.708168 C43.9407119,348.688217 43.9298572,346.668151 43.9411738,344.6482 C43.9621903,340.87905 45.2877897,337.645106 47.9999016,335.020672 C50.0153507,333.070402 52.4328849,331.870161 55.2305641,331.608711 C57.0010322,331.443233 58.7910157,331.486104 60.572223,331.43549 Z M50.8615541,364.935418 C50.646077,365.02434 50.4468821,365.170578 50.2654125,365.321266 C49.4693832,365.982314 48.2268106,365.963825 47.6426786,365.214953 C47.3511033,364.841181 46.8142006,364.825118 46.480881,365.005908 C45.8985388,365.321844 45.6817916,365.679264 45.8488844,366.171598 C45.919844,366.380873 46.0543151,366.59142 46.2147103,366.743552 C47.0279455,367.514727 48.0164145,367.883067 49.1703598,367.953847 C49.3847975,367.928251 49.6436932,367.909472 49.8980277,367.864752 C50.7159974,367.721113 51.4029025,367.327581 52.0109957,366.767703 C52.5033249,366.314485 52.537852,365.919682 52.0790107,365.455948 C51.9850138,365.36096 51.8726563,365.283132 51.7850682,365.183059 C51.5261147,364.887115 51.2296317,364.783633 50.8615541,364.935418 Z M82.8445088,336.668787 C85.4933979,339.366658 87.1143832,342.636367 87.7477655,346.365418 C88.4637705,350.580968 87.6398538,354.530504 85.474229,358.189989 C83.3651872,361.753851 80.3258758,364.25978 76.4966554,365.80086 C75.938563,366.025446 75.3491768,366.187227 74.725148,366.244775 C74.218038,366.291576 73.7090226,366.441108 73.2121899,366.632067 C72.5314049,366.89369 71.8121667,367.102445 71.0115761,366.922695 L71.0115761,357.13252 L68.8123479,357.13252 L68.8123479,366.975043 C68.3133212,366.92882 67.8478978,366.902299 67.3872666,366.84036 C64.7234234,366.482304 62.2403569,365.609496 59.9958047,364.124 C55.821948,361.361648 53.2245609,357.514496 52.1808369,352.615768 C51.7745368,350.708602 51.6919142,348.770408 51.8706701,346.847294 C52.1739661,343.585501 53.4113423,340.657901 55.4291586,338.08073 C58.2401751,334.490522 61.8793232,332.15244 66.3632889,331.33793 C72.7706699,330.17409 78.2921817,332.032202 82.8445088,336.668787 Z M78.8912678,342.092783 C76.0579068,342.115721 73.6431439,343.141932 71.7079502,345.212555 C71.0764155,345.88828 70.5600674,346.671762 69.9845383,347.414279 C69.9288214,347.320446 69.8491434,347.178945 69.7627101,347.04172 C67.7387158,343.82979 64.8636105,342.117339 61.0361221,342.092552 C59.709599,342.084 58.3830181,342.090934 57.0564373,342.090761 L56.7429794,342.090761 L56.7427115,345.318107 C56.7427846,345.672216 56.7429361,346.025577 56.7432104,346.378938 C56.7447116,348.369884 57.2362324,350.226899 58.3567475,351.879549 C60.282299,354.719383 62.9657153,356.258671 66.4073427,356.345513 C68.7033969,356.403465 71.0021071,356.36822 73.2994315,356.349846 C73.8818892,356.345166 74.4712754,356.287619 75.0445528,356.183328 C79.5846973,355.357031 83.1484399,351.309965 83.3172649,346.414068 C83.3639747,345.059268 83.3248863,343.701579 83.3243666,342.345161 C83.3243666,342.270626 83.3171494,342.196034 83.3124149,342.10457 C83.2024824,342.099485 83.1088319,342.091512 83.0151236,342.091454 C81.640505,342.090587 80.2657709,342.081631 78.8912678,342.092783 Z M58.7259799,345.841369 C61.4938087,348.610366 64.2493393,351.367114 66.9944194,354.113346 C62.8569375,354.612036 58.3503386,351.034712 58.7259799,345.841369 Z M79.2601192,344.317225 L76.5203787,347.059211 L71.0242437,352.55985 C70.6757968,347.675567 74.7952069,343.925079 79.2601192,344.317225 Z" id="path-1"></path>
        <filter x="-6.2%" y="-6.1%" width="112.5%" height="112.2%" filterUnits="objectBoundingBox" id="filter-2">
            <feOffset dx="0" dy="0" in="SourceAlpha" result="shadowOffsetOuter1"></feOffset>
            <feGaussianBlur stdDeviation="1" in="shadowOffsetOuter1" result="shadowBlurOuter1"></feGaussianBlur>
            <feColorMatrix values="0 0 0 0 0   0 0 0 0 0   0 0 0 0 0  0 0 0 0.15 0" type="matrix" in="shadowBlurOuter1"></feColorMatrix>
        </filter>
    </defs>
    <g id="Presentation" stroke="none" stroke-width="1" fill="none" fill-rule="evenodd">
        <g id="Combined-Shape" transform="translate(-38.000000, -329.000000)">
            <use fill="black" fill-opacity="1" filter="url(#filter-2)" xlink:href="#path-1"></use>
            <use fill="#E8FBF1" fill-rule="evenodd" xlink:href="#path-1"></use>
        </g>
    </g>
</svg>