<?xml version="1.0" encoding="UTF-8"?>
<svg width="58px" height="46px" viewBox="0 0 58 46" version="1.1" xmlns="http://www.w3.org/2000/svg" xmlns:xlink="http://www.w3.org/1999/xlink">
    <title>Combined Shape</title>
    <g id="Presentation" stroke="none" stroke-width="1" fill="none" fill-rule="evenodd">
        <g id="Sign-up" transform="translate(-35.000000, -435.000000)" fill="#000000">
            <g id="Group-26" transform="translate(24.000000, 316.000000)">
                <g id="Group-25" transform="translate(0.000000, 102.000000)">
                    <path d="M55.5604534,40.7962903 C56.3975967,40.9293714 56.6844586,41.4461028 56.3544132,42.3559021 C56.0242135,43.2664733 55.5087874,44.108497 55.1505184,45.0108857 C54.8901835,45.6664106 54.721922,46.3640829 54.5701628,47.0557341 C54.3968119,47.8454208 54.8355872,48.2860397 55.5552097,48.4316261 C56.7569452,48.6749391 57.9830486,48.8092553 59.173063,49.0967229 C60.6824811,49.4612293 62.2176551,49.8050479 63.6505767,50.3841514 C66.7951078,51.6550606 68.2354323,54.2607949 68.7206299,57.4711066 C68.8964485,58.6340996 68.9279108,59.8202507 68.9965418,60.9974473 C69.0139694,61.2980377 68.9644626,61.6185439 68.8720807,61.9063203 C68.6481433,62.6039926 68.3185606,63.009257 67.4069257,62.9998394 C61.5321168,62.9391655 55.6563825,62.9606253 49.7809567,62.979306 C49.2405458,62.9810043 48.9822158,62.8286249 48.7740096,62.3084969 C47.6931879,59.6071974 48.5756739,57.1797794 49.7609072,54.7926562 C49.8276874,54.6580313 50.1358326,54.5914907 50.3354022,54.5833082 C51.9456846,54.516922 53.1526639,53.8056637 53.7876158,52.3116661 C54.4224135,50.8181317 54.0743235,49.4817627 53.0257352,48.2505308 C52.3142868,47.4151458 51.4083583,47.0265551 50.4018739,46.7727438 C49.3600716,46.5099781 48.3147221,46.2612615 47.2724571,46.0001941 C47.0247687,45.9382851 46.7433048,45.9067903 46.5478993,45.7641372 C46.2007347,45.5109434 45.9073953,45.1834898 45.5916929,44.8870678 C45.9413252,44.6276986 46.2582613,44.2239781 46.6466045,44.1361322 C47.8167236,43.8713594 49.0163,43.7401309 50.2002994,43.5335619 C50.5914187,43.4653231 50.9700456,43.3262209 51.4806907,43.1843398 C51.2946931,42.8981073 51.2293009,42.7617841 51.1322923,42.6541767 C50.5085989,41.9620623 50.5591853,41.608363 51.4108259,41.2470987 C52.7431916,40.6820443 54.144651,40.5713493 55.5604534,40.7962903 Z M62.2398637,52.3765084 C61.8154315,52.8574222 62.0635825,53.0468544 62.4614877,53.2756551 C64.4773868,54.4341709 65.8874828,56.0786953 66.4780174,58.3761199 C66.5319968,58.5857767 66.7728991,58.7472649 66.9269717,58.9311392 C66.999921,58.6842752 67.183451,58.4091586 67.1287005,58.1950246 C66.4371473,55.4898654 64.7332491,53.6227158 62.2398637,52.3765084 Z M28.3300077,31.0847656 C29.2359362,31.3027593 30.1424816,31.8285995 30.86889,32.4305522 C33.5558301,34.6571135 36.1585623,36.9851066 38.8199007,39.2431627 C39.114474,39.49296 39.5842489,39.6661816 39.9685822,39.658771 C43.5591373,39.5897603 47.1487671,39.4747424 50.7387054,39.3697596 C51.4154527,39.3499981 52.0326686,39.4827705 52.5766267,39.9817474 C49.9857699,40.8947888 49.6563414,41.2467899 50.0156899,42.7532928 C48.9512162,42.9096863 47.8853545,43.0311884 46.8339901,43.2291118 C45.3509448,43.5082425 44.8740754,43.9967212 44.7216993,45.3065358 C42.8950366,45.4658626 41.0895029,45.3656658 39.2639198,45.0332718 C38.0089759,44.8047798 37.0931769,44.2880484 36.2526406,43.3239051 C33.9420141,40.6735531 31.5530403,38.0900504 29.1491065,35.5233758 C27.1948981,33.4366887 23.8884288,34.0872731 22.9403964,36.70999 C22.4201893,38.1491804 22.7386677,39.4429388 23.7459232,40.5642475 C25.0496027,42.0157888 26.3560583,43.4656319 27.7007622,44.8787309 C28.0928068,45.2907884 28.0988217,45.58227 27.8301585,46.06411 C26.0684253,49.2234742 24.4522822,52.4495332 23.4319174,55.9443791 C23.2835512,56.4527736 23.3810225,56.7226411 23.7793905,57.0445369 C24.3598692,57.5136664 24.6782293,57.7711442 24.8106965,57.8785518 L24.828,57.893 L24.7804215,57.8553769 C24.5981601,57.7089138 24.2016296,57.3895446 23.7754611,57.0464304 L23.3632845,56.7146339 C22.340331,55.8913452 21.4869743,55.2062187 23.355553,56.7212563 C23.7836044,57.068317 22.3159998,56.6004098 20.7945469,56.0400779 L20.4141277,55.8984875 C19.2126648,55.4466688 18.0736471,54.9746611 17.9109172,54.8409659 L11,53.0462368 C12.2072877,45.9980326 15.1340505,39.6996834 19.729702,34.2222069 C21.9616729,31.5619741 24.8136357,30.2387279 28.3300077,31.0847656 Z M28.5794542,36.0797382 C31.2613048,38.9798875 33.8970415,41.9228018 36.5895338,44.8127616 C36.9212757,45.1687768 37.4598358,45.432932 37.9441081,45.5288059 C42.257216,46.3827173 46.5818909,47.1785794 50.8983918,48.0155083 C52.3967056,48.3060636 53.4278663,49.6524678 53.296465,51.050437 C53.1501037,52.6089681 51.9193735,53.7525085 50.1186209,53.7654769 C48.8100061,53.5172235 47.2526235,53.2218823 45.695395,52.9260778 C42.2036993,52.2629881 38.7055261,51.6318563 35.2264769,50.9080927 C34.5690079,50.7713063 33.8492312,50.3963016 33.394262,49.90983 C30.3279239,46.6322058 27.3169533,43.3023991 24.3064453,39.9729011 C23.1534454,38.6976691 23.240892,36.9628287 24.459901,35.8452252 C25.6702733,34.7356499 27.3977681,34.8017273 28.5794542,36.0797382 Z M60.1271102,51.5922253 C60.0402805,51.5863586 59.9310879,51.9124228 59.8161889,52.1142059 C60.2105469,52.2548519 60.5132942,52.362768 60.910891,52.5044948 C60.9358758,52.2489852 61.0392078,51.9207597 60.9596267,51.8679595 C60.7210378,51.7090959 60.4142806,51.611678 60.1271102,51.5922253 Z M56.4611382,50.8153527 L56.4611382,51.4878601 C57.2466155,51.5990183 57.9688598,51.7013765 58.8535049,51.8267383 C58.735213,51.5151865 58.6914125,51.1613328 58.5765135,51.1364765 C57.894214,50.9891919 57.1954122,50.9178653 56.4611382,50.8153527 Z M57.0848161,38.3326069 C58.355491,38.4482424 59.3121602,39.5786599 59.280081,41.0846996 C59.2227086,41.1481524 59.0578401,41.3298653 58.8929716,41.5117325 C58.7697443,41.3223003 58.5470408,41.1367278 58.5394837,40.9426641 C58.4969171,39.8516151 57.961133,39.2413255 56.8965051,39.0347564 C56.7328704,39.0029528 56.6101059,38.7590223 56.4683714,38.6132815 C56.6744185,38.5143198 56.8894107,38.3148525 57.0848161,38.3326069 Z M57.8005212,36.7673909 C59.558553,36.9117422 60.8910729,38.5201401 60.8916898,40.4607777 C60.8916898,40.588764 60.9330226,40.7366663 60.8832073,40.8408771 C60.7766366,41.0639655 60.6230266,41.2643591 60.4886951,41.4740159 L60.4245467,41.3636982 L60.2823781,41.1435517 C60.2148267,41.0333584 60.1607317,40.9227019 60.1567989,40.8103086 C60.0857003,38.765769 59.5392746,38.0333597 57.666498,37.4806562 C57.4760279,37.4244596 57.3415421,37.1779044 57.1811462,37.0196583 C57.3879644,36.9308861 57.6021855,36.7511803 57.8005212,36.7673909 Z M37.6693839,17.0000759 C42.2110559,16.9809313 45.8196556,20.5846196 45.8144233,25.1340792 C45.8093224,29.6370685 42.2102848,33.2356621 37.7080948,33.2396828 C33.2217901,33.2436902 29.6050164,29.6349071 29.5854283,25.1350055 C29.5661513,20.6510058 33.1752136,17.0192191 37.6693839,17.0000759 Z" id="Combined-Shape"></path>
                </g>
            </g>
        </g>
    </g>
</svg>