<?xml version="1.0" encoding="UTF-8"?>
<svg width="17px" height="17px" viewBox="0 0 17 17" version="1.1" xmlns="http://www.w3.org/2000/svg" xmlns:xlink="http://www.w3.org/1999/xlink">
    <title>backward_1_</title>
    <g id="Presentation" stroke="none" stroke-width="1" fill="none" fill-rule="evenodd">
        <g id="Sign-up---Greener-OTP" transform="translate(-24.000000, -61.000000)" fill="#222A30" fill-rule="nonzero">
            <g id="Group" transform="translate(24.000000, 61.000000)">
                <path d="M8.71911111,16.8631485 L9.62577778,15.950805 C9.80711111,15.7683363 9.80711111,15.5250447 9.62577778,15.342576 L3.944,9.56440072 L16.5768889,9.56440072 C16.8186667,9.56440072 17,9.38193202 17,9.13864043 L17,7.86135957 C17,7.61806798 16.8186667,7.43559928 16.5768889,7.43559928 L3.88355556,7.43559928 L9.56533333,1.65742397 C9.74666667,1.47495528 9.74666667,1.23166369 9.56533333,1.04919499 L8.65866667,0.136851521 C8.47733333,-0.0456171735 8.23555556,-0.0456171735 8.05422222,0.136851521 L0.136,8.16547406 C-0.0453333333,8.34794275 -0.0453333333,8.59123435 0.136,8.77370304 L8.05422222,16.8631485 C8.23555556,17.0456172 8.53777778,17.0456172 8.71911111,16.8631485 Z" id="backward_1_"></path>
            </g>
        </g>
    </g>
</svg>