<?xml version="1.0" encoding="UTF-8"?>
<svg width="78px" height="75px" viewBox="0 0 78 75" version="1.1" xmlns="http://www.w3.org/2000/svg" xmlns:xlink="http://www.w3.org/1999/xlink">
    <title>Fill 1 Copy 4</title>
    <g id="Presentation" stroke="none" stroke-width="1" fill="none" fill-rule="evenodd">
        <g id="Artboard" transform="translate(-25.000000, -76.000000)" fill="#2ADF80">
            <path d="M82.1682421,76.4641421 C82.8723117,75.7384861 83.4401502,75.9894672 84.1046689,76.3680014 C93.0491465,81.4637755 97.5138916,88.7501612 100.74671,98.6720077 C104.477997,110.12449 103.452811,121.183208 97.334029,131.571797 C90.9697797,142.377948 81.4756696,148.673735 69.1994958,150.569262 C52.6452281,153.126033 36.2626617,144.114192 28.8499985,128.488632 C21.3883675,112.759951 24.9928397,93.8690979 37.7533557,82.1300971 C40.1832276,79.8947466 41.372239,77.8691289 44.3316542,76.3584825 C45.0071592,76.0135817 45.5624419,75.7457839 46.2702783,76.4761993 C51.6642738,82.0434753 57.1025287,87.5666471 62.5266583,93.1037799 C59.1984149,96.4671177 57.2952892,99.8323593 53.9642207,103.192841 C50.8017146,106.383253 49.2545193,110.186046 49.458238,114.745272 C49.727875,120.778339 54.1428277,126.496648 59.8391055,128.031726 C66.1518757,129.733067 73.0575962,127.101731 76.260595,121.774648 C79.9937647,115.566117 78.9795655,108.26228 73.6872724,102.97359 C70.416472,99.7048063 68.9648933,96.3947742 65.7160657,93.1034626" id="Fill-1-Copy-4" transform="translate(63.961039, 113.500000) rotate(-180.000000) translate(-63.961039, -113.500000) "></path>
        </g>
    </g>
</svg>