<?xml version="1.0" encoding="UTF-8"?>
<svg width="28px" height="25px" viewBox="0 0 28 25" version="1.1" xmlns="http://www.w3.org/2000/svg" xmlns:xlink="http://www.w3.org/1999/xlink">
    <title>Combined Shape Copy</title>
    <g id="UI-Design" stroke="none" stroke-width="1" fill="none" fill-rule="evenodd">
        <path d="M16.3550319,0 C17.7901307,0 18.9255092,0.942524 19.4863898,2.02361111 L20.5816938,4.13333333 L22.4285362,4.13333333 C25.055148,4.13333333 27.2894737,6.207316 27.2894737,8.83446267 L27.2894737,20.096184 C27.2894737,22.7233307 25.055148,24.8 22.4285362,24.8 L4.8609375,24.8 C2.23432566,24.8 0,22.7233307 0,20.096184 L0,8.83446267 C0,6.207316 2.23432566,4.13333333 4.8609375,4.13333333 L6.59317778,4.13333333 C6.99425117,3.40217422 7.39637521,2.66229378 7.80042316,1.9375 C8.38331267,0.969404444 9.46252949,0 10.9131287,0 Z M16.3550319,2.75555556 L10.9131287,2.75555556 C10.6349126,2.75555556 10.408369,2.91055556 10.1322814,3.36909378 L8.59192705,6.17847911 C8.35149314,6.616888 7.89429895,6.88893022 7.39801258,6.88888889 L4.8609375,6.88888889 C3.61423154,6.88888889 2.72894737,7.77845111 2.72894737,8.83446267 L2.72894737,20.096184 C2.72894737,21.1521956 3.61423154,22.0444444 4.8609375,22.0444444 L22.4285362,22.0444444 C23.6752421,22.0444444 24.5605263,21.1521956 24.5605263,20.096184 L24.5605263,8.83446267 C24.5605263,7.77845111 23.6752421,6.88888889 22.4285362,6.88888889 L19.7555595,6.88888889 C19.2472385,6.88901289 18.7809706,6.60384044 18.5456534,6.14887067 L17.069252,3.30183067 C16.8664775,2.91098267 16.6426493,2.75555556 16.3550319,2.75555556 Z M13.6100929,8.26666667 C16.6082372,8.26666667 19.0679876,10.7504004 19.0679876,13.7777778 C19.0679876,16.8051551 16.6082372,19.2888889 13.6100929,19.2888889 C10.6119485,19.2888889 8.15219812,16.8051551 8.15219812,13.7777778 C8.15219812,10.7504004 10.6119485,8.26666667 13.6100929,8.26666667 Z M13.6100929,11.0222222 C12.0867808,11.0222222 10.8811455,12.2396129 10.8811455,13.7777778 C10.8811455,15.3159427 12.0867808,16.5333333 13.6100929,16.5333333 C15.1334049,16.5333333 16.3390402,15.3159427 16.3390402,13.7777778 C16.3390402,12.2396129 15.1334049,11.0222222 13.6100929,11.0222222 Z" id="Combined-Shape-Copy" fill="#000000" fill-rule="nonzero"></path>
    </g>
</svg>