<?xml version="1.0" encoding="UTF-8"?>
<svg width="38px" height="42px" viewBox="0 0 38 42" version="1.1" xmlns="http://www.w3.org/2000/svg" xmlns:xlink="http://www.w3.org/1999/xlink">
    <title>Combined Shape Copy</title>
    <g id="UI-Design" stroke="none" stroke-width="1" fill="none" fill-rule="evenodd">
        <path d="M19.2407484,7.26225799 C17.7604135,7.26295826 16.2797816,7.25125364 14.7997436,7.2716617 C14.4495548,7.2764636 14.213984,7.16201837 14.0036529,6.89541298 C12.910921,5.51036551 12.451162,3.95044892 12.7347378,2.19235399 C12.882217,1.27779249 13.4414503,0.649544159 14.3131612,0.477176026 C15.4507307,0.252187094 16.6137379,0.100627187 17.7714002,0.0505073755 C19.6750697,-0.0318251683 21.5885382,-0.063637743 23.4672649,0.361030117 C24.4523073,0.583718139 25.3457937,1.00108311 25.5960135,2.11062168 C26.0283552,4.02787952 25.4362608,5.67993254 24.1690284,7.11029792 C24.0646052,7.2281445 23.8150783,7.25385467 23.6324614,7.25525522 C22.1686561,7.26645965 20.7046527,7.26155771 19.2407484,7.26225799 M19.2531901,9.15857755 C20.7181832,9.15907775 22.1831763,9.1576772 23.6481695,9.15977803 C24.2783709,9.16057834 24.4602949,9.34875272 24.4679163,9.9923071 C24.4852377,11.4447812 24.3986308,11.5322158 22.9387846,11.5323158 C20.2886129,11.5324159 17.6383423,11.530215 14.9881706,11.534327 C14.5566207,11.5350169 14.1584269,11.5017037 13.9776906,11.0133107 C13.7735952,10.4615926 13.899101,9.54302952 14.2559215,9.28072583 C14.3848916,9.18588835 14.5891849,9.16407973 14.7594294,9.16307933 C16.2572836,9.15447593 17.7552369,9.15807735 19.2531901,9.15857755 M20.4376956,33.3219687 L18.567976,33.3219687 C18.567976,35.3090541 18.5561974,37.2534227 18.5760923,39.1973911 C18.5812392,39.70069 19.0011095,40.072537 19.4313727,40.0564306 C19.8688614,40.0400242 20.1946023,39.6491697 20.2363716,39.1470712 C20.30635,38.3061388 20.2235043,37.47421 20.3892947,36.61417 C20.5924003,35.5600533 20.4376956,34.4354088 20.4376956,33.3219687 M9.530173,21.6845687 C9.530173,23.05381 9.49602513,24.283396 9.53660665,25.510481 C9.66250837,29.3195867 12.9466427,32.5623684 16.7186461,32.6106875 C18.4459345,32.6327963 20.1740146,32.6306955 21.901402,32.6109877 C25.5745251,32.5689711 28.7047465,29.6618219 29.0252416,25.9833679 C29.0629527,25.5503968 28.9077531,25.1039203 28.8952817,24.6621457 C28.8723185,23.8478238 28.8777624,23.0321014 28.8945888,22.2173793 C28.9013194,21.8912504 28.831737,21.7377898 28.4632369,21.7467933 C27.4930415,21.7705027 26.5216583,21.7435921 25.5511659,21.7576976 C23.3225472,21.7900104 21.4627256,22.6372453 20.0243579,24.3735316 C19.7239556,24.736175 19.4711624,25.1393343 19.1805591,25.5459951 C19.0189258,25.3158041 18.8829282,25.1086222 18.7336674,24.9118444 C17.5636327,23.3690346 16.1032916,22.2059748 14.171314,21.933267 C12.6686097,21.7211832 11.1311637,21.7606988 9.530173,21.6845687 M18.9519168,41.9999016 C15.4602228,42.0044006 11.9767442,41.8553417 8.51217055,41.3927589 C6.71896196,41.1532642 4.94000639,40.8348383 3.23657206,40.191384 C2.22015328,39.8074322 1.29608222,39.2784231 0.655191029,38.3541578 C-0.0875498922,37.2831344 -0.224141373,36.1437841 0.375970328,34.9693198 C0.976576926,33.7938552 1.90945715,33.0784724 3.26052505,33.0234507 C4.88051981,32.9574246 5.8897131,31.8877018 5.90535183,30.2411509 C5.92217832,28.4617476 5.83072142,26.669039 6.01244747,24.9059421 C6.47289933,20.4394766 8.74120873,17.0769475 12.5018295,14.7416244 C13.2949509,14.2490297 14.1728976,13.8941894 15.0200617,13.4937311 C15.1594247,13.4278051 15.3417446,13.4407102 15.5042686,13.4405101 C17.8915512,13.4371087 20.2790317,13.4221028 22.6659183,13.4520146 C23.0921234,13.4573167 23.5397079,13.5969719 23.9374069,13.7689399 C28.7505739,15.8509629 31.6817479,19.463991 32.352036,24.7474794 C32.5890915,26.616018 32.442602,28.5341762 32.4737805,30.4295254 C32.4960509,31.7881624 33.2775917,32.7797544 34.5077069,32.9941391 C34.8624488,33.0559635 35.2325325,33.0378564 35.5821275,33.1169877 C37.2672507,33.4985385 38.1073873,34.7865476 37.989008,36.5148307 C37.8765675,38.1553792 36.9470526,39.1055548 35.6157805,39.7933266 C34.2696616,40.4887015 32.8136756,40.8386398 31.3384876,41.0901392 C27.4322682,41.7560024 23.9439395,41.9984983 18.9519168,41.9999016" id="Combined-Shape-Copy" fill="#2ADF80"></path>
    </g>
</svg>