<?xml version="1.0" encoding="UTF-8"?>
<svg width="24px" height="26px" viewBox="0 0 24 26" version="1.1" xmlns="http://www.w3.org/2000/svg" xmlns:xlink="http://www.w3.org/1999/xlink">
    <title>Combined Shape</title>
    <g id="UI-Design" stroke="none" stroke-width="1" fill="none" fill-rule="evenodd">
        <g id="Collecter" transform="translate(-324.000000, -59.000000)" fill="#8791A1" fill-rule="nonzero">
            <g id="Group-23" transform="translate(0.000000, 36.000000)">
                <g id="Group-18" transform="translate(24.000000, 14.000000)">
                    <path d="M323.648864,27.1550873 L321.838636,24.0314822 L321.838636,18.3326381 C321.838636,17.0762547 321.559091,15.8511073 321.006818,14.6849614 C320.485227,13.5882289 319.745455,12.5921459 318.811364,11.7314192 C317.069318,10.1244979 314.802273,9.14923891 312.525,9.01735336 L312.521591,9.01735336 C312.361364,9.00694134 312.201136,9.00347067 312.040909,9 C312.027273,9 312.013636,9 312.003409,9 C311.989773,9 311.982955,9 311.972727,9 C311.805682,9 311.642045,9.00694134 311.475,9.01735336 C309.207955,9.15618026 306.951136,10.1279685 305.215909,11.7314192 C304.281818,12.5921459 303.545455,13.5882289 303.027273,14.6849614 C302.475,15.8511073 302.195455,17.0762547 302.195455,18.3326381 L302.195455,24.0314822 L300.361364,27.148146 C300.122727,27.550744 300,28.0123434 300,28.4808842 C300,29.9108012 301.142045,31.0734765 302.546591,31.0734765 L321.453409,31.0734765 C322.857955,31.0734765 324,29.9108012 324,28.4808842 C324,28.0088727 323.880682,27.5542147 323.648864,27.1550873 Z M311.642045,14.4836624 C310.261364,14.4906037 308.918182,15.3166238 308.273864,16.5383005 L307.043182,15.86499 C307.472727,15.049382 308.1375,14.3483062 308.959091,13.8450587 C309.7875,13.3383405 310.714773,13.0676281 311.642045,13.0641574 C311.665909,13.0641574 311.689773,13.0641574 311.710227,13.0641574 L311.642045,14.4836624 Z M316.009091,32.5323519 L316.009091,32.5323519 L316.009091,32.5323519 C315.272727,34.0768011 313.752273,35 311.938636,35 C310.360227,35 308.856818,34.0698598 308.007955,32.5774707 C307.813699,32.234455 307.934293,31.7989106 308.277308,31.6046549 C308.384581,31.5439046 308.505759,31.5119742 308.629039,31.5119742 L315.365739,31.5119742 C315.759522,31.5119742 316.078746,31.8311983 316.078746,32.2249812 C316.078746,32.3313512 316.054946,32.4363734 316.009091,32.5323519 Z" id="Combined-Shape"></path>
                </g>
            </g>
        </g>
    </g>
</svg>