<?xml version="1.0" encoding="UTF-8"?>
<svg width="157px" height="162px" viewBox="0 0 157 162" version="1.1" xmlns="http://www.w3.org/2000/svg" xmlns:xlink="http://www.w3.org/1999/xlink">
    <title>Group 18 Copy</title>
    <defs>
        <linearGradient x1="50%" y1="-220.782555%" x2="50%" y2="100%" id="linearGradient-1">
            <stop stop-color="#FFFFFF" offset="0%"></stop>
            <stop stop-color="#FFFFFF" stop-opacity="0.199491914" offset="100%"></stop>
        </linearGradient>
    </defs>
    <g id="UI-Design" stroke="none" stroke-width="1" fill="none" fill-rule="evenodd">
        <g id="Group-18-Copy" transform="translate(3.000000, 3.000000)">
            <g id="Group-19-Copy" transform="translate(0.000000, 0.000000)" stroke="#FFFFFF" stroke-width="4.2768">
                <path d="M0,130.398337 L0,143.8824 C-9.56778418e-16,150.574766 5.42523432,156 12.1176,156 L25.1579785,156 L25.1579785,156" id="Path-3"></path>
                <path d="M125.842022,130.398337 L125.842022,143.8824 C125.842022,150.574766 131.267256,156 137.959622,156 L151,156 L151,156" id="Path-3-Copy" transform="translate(138.421011, 143.199169) scale(-1, 1) translate(-138.421011, -143.199169) "></path>
                <path d="M0,0 L0,13.4840627 C-9.56778418e-16,20.1764284 5.42523432,25.6016627 12.1176,25.6016627 L25.1579785,25.6016627 L25.1579785,25.6016627" id="Path-3-Copy-3" transform="translate(12.578989, 12.800831) scale(1, -1) translate(-12.578989, -12.800831) "></path>
                <path d="M125.842022,0 L125.842022,13.4840627 C125.842022,20.1764284 131.267256,25.6016627 137.959622,25.6016627 L151,25.6016627 L151,25.6016627" id="Path-3-Copy-2" transform="translate(138.421011, 12.800831) scale(-1, -1) translate(-138.421011, -12.800831) "></path>
            </g>
            <rect id="Rectangle-Copy" fill="url(#linearGradient-1)" x="0" y="40.8390397" width="150.867424" height="73.7968612"></rect>
        </g>
    </g>
</svg>